<svg xmlns="http://www.w3.org/2000/svg" xmlns:xlink="http://www.w3.org/1999/xlink" viewBox="0 0 24 24" width="24" height="24" style="width: 100%; height: 100%; transform: translate3d(0px, 0px, 0px);" preserveAspectRatio="xMidYMid meet">
    <defs>
        <clipPath id="__lottie_element_39">
            <rect width="24" height="24" x="0" y="0">
            </rect>
        </clipPath>
    </defs>
    <g clip-path="url(#__lottie_element_39)">
        <g style="display: block;" transform="matrix(1,0,0,1,0,0)" opacity="1">
            <g opacity="1" transform="matrix(1,0,0,1,12,12.916999816894531)">
                <path stroke-linecap="round" stroke-linejoin="round" fill-opacity="0" stroke="white" stroke-opacity="1" stroke-width="1.6" d=" M6.416999816894531,-8.25 C6.416999816894531,-8.25 -6.415999889373779,-8.25 -6.415999889373779,-8.25 C-7.428999900817871,-8.25 -8.25,-7.428999900817871 -8.25,-6.416999816894531 C-8.25,-6.416999816894531 -8.25,6.416999816894531 -8.25,6.416999816894531 C-8.25,7.428999900817871 -7.428999900817871,8.25 -6.415999889373779,8.25 C-6.415999889373779,8.25 6.416999816894531,8.25 6.416999816894531,8.25 C7.428999900817871,8.25 8.25,7.428999900817871 8.25,6.416999816894531 C8.25,6.416999816894531 8.25,-6.416999816894531 8.25,-6.416999816894531 C8.25,-7.428999900817871 7.428999900817871,-8.25 6.416999816894531,-8.25z"></path>
            </g>
        </g>
        <g style="display: block;" transform="matrix(1,0,0,1,0,0)" opacity="1">
            <g opacity="1" transform="matrix(1,0,0,1,0,0)">
                <path stroke-linecap="round" stroke-linejoin="round" fill-opacity="0" stroke="white" stroke-opacity="1" stroke-width="1.6" d=" M3.75,10.166999816894531 C3.75,10.166999816894531 20.25,10.166999816894531 20.25,10.166999816894531"></path>
            </g>
        </g>
        <g style="display: block;" transform="matrix(1,0,0,1,0,0)" opacity="1">
            <g opacity="1" transform="matrix(1,0,0,1,0,0)">
                <path stroke-linecap="round" stroke-linejoin="round" fill-opacity="0" stroke="white" stroke-opacity="1" stroke-width="1.6" d=" M15.666999816894531,2.8329999446868896 C15.666999816894531,2.8329999446868896 15.666999816894531,6.500999927520752 15.666999816894531,6.500999927520752"></path>
            </g>
        </g>
        <g style="display: block;" transform="matrix(1,0,0,1,0,0)" opacity="1">
            <g opacity="1" transform="matrix(1,0,0,1,0,0)">
                <path stroke-linecap="round" stroke-linejoin="round" fill-opacity="0" stroke="white" stroke-opacity="1" stroke-width="1.6" d=" M8.333000183105469,2.8329999446868896 C8.333000183105469,2.8329999446868896 8.333000183105469,6.500999927520752 8.333000183105469,6.500999927520752"></path>
            </g>
        </g>
    </g>
</svg>